HIERARCHY
ROOT Hips
{
    OFFSET 0.000000 0.000000 0.000000
    CHANNELS 6 Xposition Yposition Zposition Zrotation Xrotation Yrotation
    JOINT Spine
    {
        OFFSET -0.000000 8.312343 0.000000
        CHANNELS 3 Zrotation Xrotation Yrotation
        JOINT Spine1
        {
            OFFSET -0.000000 28.293047 0.000000
            CHANNELS 3 Zrotation Xrotation Yrotation
            JOINT Neck
            {
                OFFSET -0.000000 28.176853 2.561532
                CHANNELS 3 Zrotation Xrotation Yrotation
                JOINT Head
                {
                    OFFSET -0.000000 14.191803 -2.027400
                    CHANNELS 3 Zrotation Xrotation Yrotation
                    End Site
                    {
                        OFFSET -0.000000 25.342506 0.000000
                    }
                }
            }
            JOINT LeftShoulder
            {
                OFFSET 4.015815 26.370180 -0.268885
                CHANNELS 3 Zrotation Xrotation Yrotation
                JOINT LeftArm
                {
                    OFFSET 11.299099 0.000000 0.000000
                    CHANNELS 3 Zrotation Xrotation Yrotation
                    JOINT LeftForeArm
                    {
                        OFFSET 30.537071 0.000000 0.000000
                        CHANNELS 3 Zrotation Xrotation Yrotation
                        JOINT LeftHand
                        {
                            OFFSET 29.851767 0.000000 0.000000
                            CHANNELS 3 Zrotation Xrotation Yrotation
                            End Site
                            {
                                OFFSET 15.205504 0.000000 0.000000
                            }
                        }
                    }
                }
            }
            JOINT RightShoulder
            {
                OFFSET -4.091585 26.370180 -0.268885
                CHANNELS 3 Zrotation Xrotation Yrotation
                JOINT RightArm
                {
                    OFFSET -11.299099 0.000000 0.000000
                    CHANNELS 3 Zrotation Xrotation Yrotation
                    JOINT RightForeArm
                    {
                        OFFSET -30.537071 0.000000 0.000000
                        CHANNELS 3 Zrotation Xrotation Yrotation
                        JOINT RightHand
                        {
                            OFFSET -29.851767 0.000000 0.000000
                            CHANNELS 3 Zrotation Xrotation Yrotation
                            End Site
                            {
                                OFFSET -15.205504 0.000000 0.000000
                            }
                        }
                    }
                }
            }
        }
    }
    JOINT LeftUpLeg
    {
        OFFSET 10.137003 0.000000 0.000000
        CHANNELS 3 Zrotation Xrotation Yrotation
        JOINT LeftLeg
        {
            OFFSET -0.000000 -31.675148 0.000000
            CHANNELS 3 Zrotation Xrotation Yrotation
            JOINT LeftFoot
            {
                OFFSET -0.000000 -48.008553 0.000000
                CHANNELS 3 Zrotation Xrotation Yrotation
                JOINT LeftToeBase
                {
                    OFFSET -0.000000 -6.589051 15.205504
                    CHANNELS 3 Zrotation Xrotation Yrotation
                    End Site
                    {
                        OFFSET -0.000000 0.000000 4.054801
                    }
                }
            }
        }
    }
    JOINT RightUpLeg
    {
        OFFSET -10.137003 0.000000 0.000000
        CHANNELS 3 Zrotation Xrotation Yrotation
        JOINT RightLeg
        {
            OFFSET -0.000000 -31.675148 0.000000
            CHANNELS 3 Zrotation Xrotation Yrotation
            JOINT RightFoot
            {
                OFFSET -0.000000 -48.008553 0.000000
                CHANNELS 3 Zrotation Xrotation Yrotation
                JOINT RightToeBase
                {
                    OFFSET -0.000000 -6.589051 15.205504
                    CHANNELS 3 Zrotation Xrotation Yrotation
                    End Site
                    {
                        OFFSET -0.000000 0.000000 4.054801
                    }
                }
            }
        }
    }
}
MOTION
Frames:    11
Frame Time:    0.008333
94.743309    87.691895    -8.210835    -4.926732    -0.965403    83.220100    3.355805    -13.345692    -0.304892    -1.053884    6.963424    -0.633567    -2.215750    22.346600    -7.293362    7.328701    -2.847936    -6.501485    10.140327    -0.263311    -0.859545    -52.798111    20.372183    21.073561    13.346341    -17.516808    -43.494858    16.472954    -12.460497    -0.799077    -13.496186    -0.770498    2.127661    44.978168    32.026920    6.254880    -3.572302    -14.639537    39.187584    -10.449198    -14.012913    6.830390    9.468952    -1.534860    3.784840    -4.125645    -1.904957    10.992776    -5.212902    5.569421    20.601267    0.000000    0.000000    0.000000    -0.763340    -0.295575    1.774002    2.739028    -2.207664    -3.345152    4.493288    0.926296    -9.673072    0.000000    0.000000    0.000000    
94.745781    87.679115    -8.207327    -5.000795    -0.974435    83.237762    3.335427    -13.465415    -0.328009    -1.000349    7.107847    -0.659801    -2.300441    22.248203    -7.264406    7.512618    -3.040078    -6.431051    9.941819    -0.241380    -0.587195    -54.697624    21.170292    21.263710    13.488362    -17.439444    -43.933952    14.821739    -12.231450    -0.617335    -13.493835    -0.755783    2.013640    46.235054    33.452015    6.159228    -3.352495    -14.309646    39.228550    -9.660939    -13.717818    6.915670    9.501266    -1.615188    3.814250    -4.144371    -1.886058    10.896803    -5.201567    5.479437    20.649828    0.000000    0.000000    0.000000    -0.749336    -0.357050    1.769091    2.743237    -2.219818    -3.366205    4.500335    0.903582    -9.660361    0.000000    0.000000    0.000000    
94.744911    87.670403    -8.210428    -5.066469    -0.932291    83.207458    3.301483    -13.544060    -0.339482    -1.000049    7.168972    -0.669024    -2.379393    22.163677    -7.233047    7.683750    -3.135998    -6.365839    9.770855    -0.205039    -0.208920    -56.338158    21.297747    20.891819    13.598258    -16.871136    -43.705830    12.203707    -11.664110    -1.015434    -13.510205    -0.686255    1.977045    47.587704    34.638088    6.079246    -2.994298    -13.888178    39.214359    -8.861179    -13.382996    7.051926    9.457544    -1.668815    3.848189    -4.128366    -1.896383    10.882602    -5.217634    5.464829    20.659620    0.000000    0.000000    0.000000    -0.799764    -0.447709    1.777235    2.765550    -2.189509    -3.334180    4.479617    0.847344    -9.653871    0.000000    0.000000    0.000000    
94.764725    87.667191    -8.200974    -5.069129    -0.952380    83.221336    3.274703    -13.607260    -0.348747    -0.955679    7.298931    -0.678580    -2.441612    22.022421    -7.240440    7.867149    -3.120874    -6.343703    9.573654    -0.339016    -0.085011    -57.974365    21.373108    20.945196    13.301545    -16.209793    -43.736233    11.743391    -11.110008    -1.132001    -13.488443    -0.627585    1.892135    48.839046    35.972878    5.975854    -2.798262    -13.446779    39.100830    -8.211914    -12.985490    7.236138    9.493424    -1.667252    3.873189    -4.146325    -1.882659    10.891914    -5.212377    5.438881    20.613430    0.000000    0.000000    0.000000    -0.775909    -0.414504    1.764429    2.766229    -2.217549    -3.344719    4.491123    0.847681    -9.642495    0.000000    0.000000    0.000000    
94.783981    87.657333    -8.195732    -5.063119    -0.958509    83.219223    3.272568    -13.638740    -0.366067    -0.965727    7.374807    -0.695292    -2.549925    21.983471    -7.225285    8.144436    -3.204879    -6.280211    9.267121    -0.409074    0.147339    -59.299156    21.424824    20.759972    12.876479    -15.309804    -43.431084    10.698606    -10.418714    -1.438400    -13.442026    -0.572723    1.857371    50.153278    36.952881    5.931445    -2.629223    -12.699952    38.753643    -7.111901    -12.260039    7.622927    9.504756    -1.653721    3.898651    -4.150489    -1.867931    10.919875    -5.209095    5.388464    20.554926    0.000000    0.000000    0.000000    -0.771492    -0.381021    1.774044    2.767982    -2.234438    -3.348472    4.473345    0.818593    -9.636116    0.000000    0.000000    0.000000    
94.795143    87.655052    -8.198426    -5.124382    -0.962593    83.216850    3.279791    -13.765383    -0.373762    -0.965359    7.517940    -0.706413    -2.638721    21.867783    -7.224140    8.368166    -3.256100    -6.239276    9.059869    -0.237262    0.376601    -60.566547    21.197153    20.217205    12.004867    -14.308240    -43.125294    11.552412    -9.774028    -1.251938    -13.443172    -0.559590    1.746361    51.340912    38.679703    5.934505    -2.640206    -12.254943    38.447464    -6.898402    -11.792792    7.428652    9.517452    -1.702906    3.871182    -4.157128    -1.865138    10.874847    -5.195705    5.335031    20.625523    0.000000    0.000000    0.000000    -0.774176    -0.444111    1.748535    2.786640    -2.215084    -3.262663    4.470297    0.806403    -9.686342    0.000000    0.000000    0.000000    
94.812584    87.649414    -8.198849    -5.158038    -0.963613    83.212517    3.278169    -13.905144    -0.374968    -0.958546    7.759765    -0.709861    -2.722642    21.646376    -7.233918    8.562281    -3.279731    -6.213328    8.801156    -0.209901    0.609744    -61.836479    21.324911    19.872757    11.190663    -13.724129    -42.743263    10.289106    -9.564051    -1.629953    -13.505671    -0.624247    1.530954    52.577724    40.051815    6.010431    -2.400544    -11.584879    38.128742    -7.415618    -11.231504    7.231822    9.522963    -1.730224    3.849300    -4.156887    -1.854010    10.890595    -5.182060    5.295848    20.628849    0.000000    0.000000    0.000000    -0.778152    -0.461360    1.742614    2.802948    -2.228014    -3.320060    4.467680    0.797212    -9.634132    0.000000    0.000000    0.000000    
94.833961    87.641891    -8.199353    -5.186340    -0.955670    83.201027    3.259510    -14.074502    -0.363718    -0.948706    8.065112    -0.699318    -2.772398    21.384623    -7.266583    8.723389    -3.302224    -6.213752    8.516120    -0.119671    0.813826    -63.083023    21.520666    19.425377    10.133986    -13.350713    -42.504627    10.293848    -9.528651    -0.586811    -13.518407    -0.630182    1.301106    53.810005    41.457981    6.167444    -2.537823    -10.831034    37.583015    -6.320610    -10.396131    7.618740    9.520226    -1.747649    3.854723    -4.160150    -1.842887    10.885844    -5.193370    5.245907    20.637682    0.000000    0.000000    0.000000    -0.786950    -0.480022    1.723515    2.806054    -2.219831    -3.311498    4.454872    0.758896    -9.607637    0.000000    0.000000    0.000000    
94.850967    87.636475    -8.196923    -5.235529    -0.952834    83.205559    3.230914    -14.271956    -0.350987    -0.904658    8.396891    -0.689246    -2.788522    21.096878    -7.313948    8.793659    -3.340005    -6.241304    8.225209    -0.055683    0.992133    -64.202293    21.714842    18.961670    9.106178    -13.065076    -42.130836    9.861671    -9.601171    0.202426    -13.567561    -0.617312    1.068239    54.979652    42.920940    6.270883    -2.447770    -10.295380    37.336555    -6.326766    -9.887184    7.454095    9.532968    -1.806946    3.889287    -4.176312    -1.802294    10.825244    -5.166843    5.191094    20.657991    0.000000    0.000000    0.000000    -0.790068    -0.501803    1.758893    2.811780    -2.247718    -3.313762    4.441840    0.744705    -9.632240    0.000000    0.000000    0.000000    
94.871849    87.630104    -8.190436    -5.281171    -0.951038    83.204437    3.232906    -14.410072    -0.375374    -0.901609    8.616253    -0.716343    -2.912809    20.867579    -7.294184    8.934933    -3.382135    -6.192567    7.854712    0.037073    1.253677    -65.511665    22.833313    18.846619    8.466107    -13.331609    -41.690910    9.167520    -10.087033    1.043698    -13.564903    -0.526540    0.972230    56.160442    44.237389    6.366252    -2.969969    -9.385329    36.824352    -4.884365    -8.738982    7.828746    9.550020    -1.858467    3.921236    -4.193648    -1.765488    10.808473    -5.153438    5.146268    20.651424    0.000000    0.000000    0.000000    -0.778558    -0.516536    1.781125    2.803633    -2.271748    -3.306844    4.418766    0.723988    -9.660265    0.000000    0.000000    0.000000    
94.892212    87.626556    -8.184546    -5.327493    -0.947754    83.192909    3.209484    -14.579472    -0.351110    -0.874798    8.890023    -0.693818    -2.879358    20.610365    -7.342466    8.948072    -3.439609    -6.227607    7.599223    0.104806    1.398920    -66.576797    22.878784    18.339872    8.255903    -12.709366    -40.718880    6.767535    -9.657632    0.702195    -13.528007    -0.402596    0.854127    57.320480    45.598862    6.412513    -3.612453    -8.500479    36.322491    -4.137249    -7.616163    8.079092    9.565105    -1.905540    3.968087    -4.212029    -1.725355    10.667253    -5.125526    5.094352    20.755543    0.000000    0.000000    0.000000    -0.764908    -0.543764    1.808774    2.791754    -2.286989    -3.330412    4.426941    0.715712    -9.659523    0.000000    0.000000    0.000000    
